<?xml version="1.0" encoding="UTF-8" ?>
<!DOCTYPE svg PUBLIC "-//W3C//DTD SVG 1.1//EN" "http://www.w3.org/Graphics/SVG/1.1/DTD/svg11.dtd">
<svg width="512pt" height="512pt" viewBox="0 0 512 512" version="1.1" xmlns="http://www.w3.org/2000/svg">
<g id="#000000ff">
<path fill="#000000" opacity="1.00" d=" M 368.14 147.00 C 370.11 138.94 377.58 132.61 385.88 132.07 C 391.84 131.51 397.84 133.93 401.99 138.19 C 436.55 172.58 471.12 206.97 505.67 241.37 C 509.19 244.68 511.29 249.22 512.00 253.97 L 512.00 257.41 C 511.63 264.60 506.69 270.10 501.62 274.65 C 470.58 305.58 439.51 336.47 408.45 367.38 C 404.28 371.24 400.73 376.11 395.35 378.38 C 387.49 381.87 377.54 379.50 372.15 372.79 C 365.66 365.35 366.06 353.10 373.10 346.17 C 396.55 322.74 420.08 299.41 443.56 276.01 C 302.38 275.97 161.19 276.04 20.01 275.98 C 9.84 276.23 0.72 267.65 0.00 257.57 L 0.00 254.18 C 0.77 247.19 5.20 240.67 11.69 237.81 C 16.43 235.50 21.84 236.03 26.95 236.00 C 165.82 236.00 304.69 236.01 443.56 235.99 C 420.24 212.78 396.92 189.57 373.59 166.36 C 368.49 161.47 366.30 153.83 368.14 147.00 Z" />
</g>
</svg>
