<?xml version="1.0" encoding="UTF-8" ?>
<!DOCTYPE svg PUBLIC "-//W3C//DTD SVG 1.1//EN" "http://www.w3.org/Graphics/SVG/1.1/DTD/svg11.dtd">
<svg width="512pt" height="512pt" viewBox="0 0 512 512" version="1.1" xmlns="http://www.w3.org/2000/svg">
<g id="#ffffffff">
<path fill="#ffffff" opacity="1.00" d=" M 248.63 41.27 C 253.53 41.22 258.45 41.21 263.36 41.28 C 267.63 43.38 272.74 41.69 277.37 42.28 C 279.67 43.97 282.67 43.00 285.31 43.27 C 287.36 44.76 289.99 44.12 292.35 44.29 C 293.80 45.45 295.66 45.22 297.38 45.35 C 298.85 46.43 300.67 46.22 302.38 46.35 C 303.59 47.13 305.01 47.24 306.39 47.43 C 307.64 48.06 309.02 48.25 310.39 48.45 C 312.12 49.05 313.92 49.35 315.67 49.90 C 317.25 50.40 318.81 50.96 320.41 51.43 C 322.38 52.18 324.39 52.85 326.42 53.42 C 327.75 53.94 329.11 54.37 330.43 54.91 C 331.72 55.53 333.04 56.12 334.45 56.41 C 334.98 56.68 336.03 57.22 336.56 57.48 C 338.59 58.17 340.66 58.81 342.48 59.99 C 343.77 60.55 345.07 61.08 346.45 61.42 C 346.98 61.68 348.06 62.19 348.59 62.44 C 350.21 63.28 351.85 64.08 353.50 64.87 C 354.88 65.71 356.18 66.67 357.58 67.49 C 359.22 68.28 360.86 69.07 362.50 69.87 C 363.87 70.71 365.17 71.66 366.59 72.44 C 367.96 73.13 369.28 73.94 370.52 74.87 C 371.54 75.49 372.51 76.18 373.50 76.87 C 374.53 77.48 375.50 78.16 376.50 78.83 C 377.93 79.67 379.15 80.81 380.41 81.89 C 381.47 82.47 382.48 83.15 383.51 83.82 C 385.36 84.89 386.78 86.50 388.36 87.91 C 390.83 88.94 392.35 91.27 394.36 92.93 C 395.42 93.34 396.37 93.99 397.15 94.83 C 403.29 101.01 409.44 107.18 415.63 113.32 C 416.92 114.63 418.43 115.85 419.07 117.64 C 420.74 119.63 423.00 121.19 424.13 123.60 C 425.20 124.87 426.39 126.08 427.14 127.59 C 428.20 128.87 429.39 130.08 430.14 131.59 C 431.19 132.85 432.33 134.07 433.17 135.50 C 433.83 136.49 434.52 137.47 435.13 138.50 C 435.81 139.48 436.51 140.46 437.13 141.48 C 438.05 142.72 438.86 144.03 439.56 145.41 C 440.33 146.82 441.28 148.13 442.13 149.51 C 442.92 151.14 443.72 152.78 444.51 154.42 C 445.32 155.81 446.28 157.12 447.13 158.50 C 447.92 160.14 448.72 161.78 449.56 163.41 C 449.81 163.94 450.32 165.02 450.58 165.55 C 450.92 166.93 451.45 168.24 451.99 169.56 C 452.54 170.53 453.08 171.51 453.61 172.50 C 453.87 173.93 454.47 175.26 455.08 176.58 C 455.61 177.85 456.05 179.17 456.60 180.44 C 457.37 182.11 457.95 183.85 458.57 185.58 C 459.15 187.64 459.80 189.69 460.66 191.65 C 460.73 192.05 460.85 192.85 460.91 193.25 C 461.79 194.98 461.88 196.97 462.66 198.74 C 462.72 199.11 462.84 199.86 462.91 200.24 C 463.76 201.94 463.94 203.86 464.56 205.65 C 464.75 207.01 464.89 208.40 465.63 209.61 C 465.78 211.33 465.59 213.21 466.71 214.68 C 466.83 216.69 466.35 218.90 467.69 220.64 C 467.87 222.66 467.29 224.93 468.72 226.64 C 468.95 229.31 468.09 232.31 469.73 234.68 C 470.34 239.61 468.58 245.05 470.72 249.64 C 470.79 253.88 470.79 258.12 470.72 262.36 C 468.58 266.96 470.35 272.42 469.72 277.36 C 468.03 279.69 468.99 282.69 468.72 285.35 C 467.35 287.09 467.83 289.32 467.69 291.36 C 466.33 293.11 467.01 295.36 466.50 297.35 C 465.96 298.98 465.72 300.67 465.61 302.39 C 464.91 303.60 464.75 304.99 464.56 306.35 C 463.94 308.13 463.77 310.05 462.90 311.75 C 462.84 312.14 462.71 312.92 462.65 313.31 C 461.81 315.04 461.83 317.05 460.90 318.75 C 460.84 319.15 460.73 319.95 460.67 320.35 C 459.81 322.31 459.16 324.36 458.54 326.41 C 458.17 327.41 457.84 328.43 457.55 329.46 C 456.59 331.39 455.82 333.41 455.08 335.43 C 454.48 336.74 453.89 338.05 453.56 339.46 C 453.32 340.00 452.84 341.07 452.60 341.61 C 452.07 342.55 451.53 343.50 450.99 344.43 C 450.46 345.75 449.93 347.06 449.58 348.44 C 449.33 348.98 448.82 350.05 448.56 350.59 C 448.07 351.55 447.59 352.52 447.12 353.50 C 446.28 354.88 445.32 356.19 444.50 357.58 C 443.71 359.22 442.92 360.86 442.15 362.52 C 441.52 363.54 440.81 364.50 440.11 365.48 C 439.29 366.87 438.34 368.17 437.56 369.59 C 436.86 370.96 436.05 372.28 435.13 373.52 C 434.51 374.53 433.82 375.51 433.17 376.50 C 432.33 377.93 431.19 379.14 430.14 380.41 C 429.39 381.92 428.20 383.12 427.14 384.41 C 426.40 385.92 425.20 387.12 424.13 388.40 C 422.76 391.21 420.02 392.96 418.08 395.34 C 417.66 396.40 417.02 397.35 416.19 398.13 C 410.33 403.95 404.47 409.78 398.66 415.66 C 397.35 416.94 396.14 418.44 394.35 419.07 C 392.36 420.75 390.80 423.00 388.40 424.13 C 387.12 425.20 385.92 426.39 384.41 427.13 C 383.12 428.20 381.92 429.39 380.40 430.13 C 379.14 431.19 377.93 432.33 376.50 433.17 C 375.50 433.83 374.53 434.52 373.50 435.13 C 372.51 435.81 371.54 436.51 370.52 437.13 C 369.28 438.05 367.96 438.86 366.59 439.56 C 365.17 440.33 363.87 441.29 362.50 442.13 C 360.86 442.92 359.22 443.71 357.58 444.50 C 356.18 445.32 354.88 446.29 353.50 447.14 C 352.16 447.78 350.82 448.42 349.48 449.06 C 348.48 449.58 347.48 450.09 346.48 450.59 C 345.09 450.92 343.76 451.45 342.44 451.99 C 341.47 452.54 340.49 453.09 339.50 453.61 C 338.07 453.87 336.75 454.46 335.44 455.07 C 333.76 455.72 332.06 456.33 330.43 457.10 C 329.11 457.62 327.75 458.04 326.43 458.56 C 325.41 458.84 324.40 459.17 323.41 459.53 C 322.40 459.83 321.40 460.16 320.41 460.53 C 319.39 460.84 318.40 461.19 317.42 461.59 C 315.10 462.33 312.71 462.81 310.39 463.55 C 309.03 463.74 307.64 463.94 306.39 464.57 C 305.01 464.75 303.59 464.87 302.38 465.65 C 300.67 465.77 298.85 465.58 297.38 466.65 C 295.66 466.78 293.79 466.52 292.35 467.71 C 290.01 467.91 287.39 467.18 285.35 468.72 C 282.70 469.01 279.67 467.99 277.37 469.72 C 272.42 470.35 266.95 468.58 262.36 470.72 C 258.12 470.78 253.88 470.79 249.64 470.72 C 245.05 468.59 239.62 470.33 234.68 469.73 C 232.33 468.10 229.34 468.94 226.68 468.73 C 224.95 467.39 222.70 467.82 220.68 467.69 C 218.90 466.43 216.67 466.81 214.64 466.68 C 213.44 465.83 211.99 465.76 210.60 465.58 C 209.11 464.64 207.34 464.76 205.67 464.63 C 203.91 463.91 201.96 463.78 200.26 462.91 C 199.86 462.84 199.08 462.71 198.69 462.64 C 196.95 461.80 194.95 461.83 193.25 460.91 C 192.86 460.84 192.07 460.72 191.67 460.66 C 190.66 460.23 189.63 459.85 188.59 459.52 C 186.23 458.72 183.85 458.01 181.54 457.09 C 179.56 456.14 177.44 455.51 175.45 454.59 C 174.16 454.04 172.83 453.61 171.53 453.13 C 170.51 452.61 169.50 452.07 168.48 451.57 C 166.89 450.77 165.31 449.87 163.53 449.57 C 163.00 449.32 161.94 448.82 161.41 448.56 C 160.44 448.07 159.47 447.59 158.50 447.12 C 157.12 446.28 155.81 445.32 154.42 444.50 C 152.78 443.71 151.13 442.92 149.48 442.16 C 148.46 441.52 147.49 440.81 146.52 440.11 C 145.13 439.29 143.82 438.34 142.41 437.56 C 141.03 436.86 139.72 436.05 138.48 435.13 C 137.46 434.51 136.48 433.83 135.50 433.17 C 134.07 432.33 132.85 431.19 131.59 430.14 C 130.08 429.39 128.87 428.20 127.59 427.14 C 126.08 426.39 124.87 425.20 123.60 424.13 C 120.79 422.76 119.04 420.02 116.66 418.08 C 115.58 417.66 114.62 416.99 113.83 416.15 C 107.85 410.12 101.85 404.12 95.82 398.13 C 94.98 397.35 94.33 396.40 93.92 395.34 C 91.97 392.96 89.25 391.20 87.87 388.40 C 86.79 387.12 85.60 385.92 84.86 384.41 C 83.79 383.12 82.60 381.92 81.87 380.41 C 80.81 379.14 79.67 377.93 78.83 376.50 C 78.16 375.51 77.49 374.53 76.87 373.52 C 75.94 372.28 75.13 370.96 74.44 369.59 C 73.66 368.17 72.71 366.86 71.89 365.48 C 71.18 364.50 70.48 363.54 69.85 362.52 C 68.76 360.19 67.61 357.90 66.49 355.58 C 65.67 354.18 64.71 352.88 63.87 351.50 C 63.06 349.82 62.24 348.16 61.43 346.49 C 61.08 345.10 60.53 343.77 60.02 342.45 C 59.46 341.48 58.92 340.51 58.39 339.53 C 58.13 337.71 57.22 336.10 56.46 334.47 C 56.07 332.70 55.23 331.08 54.45 329.46 C 54.15 328.43 53.82 327.41 53.46 326.41 C 52.84 324.36 52.19 322.31 51.33 320.35 C 51.27 319.95 51.15 319.15 51.09 318.75 C 50.21 317.07 50.15 315.14 49.44 313.40 C 48.65 311.10 48.19 308.71 47.45 306.39 C 47.25 305.01 47.11 303.59 46.35 302.38 C 46.23 300.67 46.41 298.85 45.35 297.38 C 45.21 295.66 45.46 293.80 44.29 292.35 C 44.08 290.01 44.83 287.38 43.28 285.36 C 43.01 282.69 43.95 279.70 42.28 277.36 C 41.65 272.41 43.42 266.95 41.28 262.36 C 41.21 258.13 41.22 253.90 41.27 249.68 C 43.36 245.05 41.69 239.60 42.28 234.64 C 43.96 232.30 43.01 229.30 43.28 226.64 C 44.84 224.62 44.07 221.99 44.29 219.65 C 45.47 218.20 45.21 216.34 45.35 214.62 C 46.40 213.14 46.23 211.33 46.35 209.62 C 47.11 208.40 47.24 206.98 47.44 205.61 C 48.06 203.88 48.35 202.07 48.93 200.33 C 49.78 198.01 50.04 195.49 51.11 193.26 C 51.16 192.86 51.28 192.06 51.33 191.66 C 52.74 188.37 53.54 184.86 54.91 181.55 C 55.85 179.56 56.48 177.44 57.45 175.46 C 57.84 174.49 58.16 173.50 58.40 172.49 C 58.92 171.50 59.45 170.52 60.01 169.55 C 60.53 168.23 61.10 166.92 61.43 165.54 C 61.68 165.01 62.19 163.94 62.44 163.41 C 63.28 161.79 64.08 160.15 64.87 158.50 C 65.71 157.12 66.67 155.81 67.50 154.42 C 68.28 152.78 69.08 151.13 69.85 149.48 C 70.48 148.46 71.18 147.49 71.89 146.52 C 72.71 145.13 73.66 143.82 74.44 142.41 C 75.13 141.03 75.94 139.72 76.87 138.48 C 77.49 137.46 78.17 136.48 78.83 135.50 C 79.67 134.07 80.80 132.85 81.86 131.59 C 82.60 130.08 83.79 128.87 84.86 127.59 C 85.60 126.08 86.79 124.87 87.87 123.60 C 89.00 121.19 91.25 119.63 92.93 117.64 C 93.65 115.64 95.41 114.34 96.83 112.86 C 102.03 107.70 107.21 102.53 112.36 97.32 C 113.67 96.04 114.88 94.54 116.66 93.92 C 119.03 91.97 120.79 89.25 123.60 87.87 C 124.87 86.79 126.08 85.60 127.59 84.86 C 128.87 83.79 130.08 82.60 131.59 81.86 C 132.85 80.80 134.07 79.67 135.50 78.83 C 136.48 78.16 137.47 77.48 138.49 76.86 C 139.44 76.19 140.41 75.55 141.41 74.95 C 143.20 74.08 144.83 72.94 146.51 71.89 C 147.75 70.94 149.07 70.10 150.42 69.32 C 151.46 68.89 152.51 68.43 153.56 68.01 C 155.24 67.02 156.85 65.90 158.52 64.88 C 159.49 64.38 160.47 63.87 161.43 63.36 C 163.44 62.50 165.51 61.83 167.52 61.00 C 169.12 60.09 170.76 59.27 172.40 58.43 C 172.94 58.18 174.01 57.67 174.54 57.41 C 175.56 57.14 176.58 56.84 177.58 56.50 C 179.30 56.01 180.92 55.22 182.53 54.45 C 183.56 54.15 184.58 53.83 185.59 53.47 C 186.60 53.17 187.60 52.85 188.59 52.49 C 189.63 52.15 190.66 51.76 191.67 51.34 C 192.07 51.28 192.86 51.15 193.25 51.09 C 194.93 50.23 196.85 50.10 198.60 49.44 C 200.90 48.60 203.35 48.28 205.62 47.37 C 207.30 47.21 209.11 47.40 210.60 46.42 C 211.99 46.23 213.45 46.17 214.64 45.31 C 216.66 45.13 218.91 45.69 220.63 44.30 C 222.67 44.16 224.91 44.65 226.65 43.28 C 229.30 42.98 232.33 44.01 234.63 42.28 C 239.23 41.65 244.41 43.43 248.63 41.27 M 174.32 146.92 C 173.42 147.64 172.52 148.36 171.62 149.08 C 170.58 149.67 169.58 150.33 168.58 150.99 C 167.13 151.84 165.89 152.97 164.63 154.07 C 161.53 155.86 158.94 158.60 157.02 161.61 C 155.67 163.48 154.39 165.40 153.23 167.39 C 152.64 168.48 152.04 169.57 151.43 170.65 C 151.41 171.05 151.39 171.86 151.38 172.27 C 149.88 175.78 148.26 179.40 148.26 183.29 C 146.93 185.39 147.55 187.96 147.36 190.30 C 147.14 190.78 146.70 191.73 146.48 192.21 C 146.32 197.13 146.49 202.07 146.41 206.99 C 146.28 208.33 146.56 209.64 147.36 210.74 C 147.54 213.05 146.96 215.55 148.20 217.67 C 148.45 219.01 148.53 220.42 149.19 221.66 C 149.75 226.50 152.22 230.80 153.63 235.38 C 154.30 236.78 155.00 238.18 155.67 239.59 C 156.17 240.54 156.67 241.50 157.17 242.46 C 157.51 243.16 157.86 243.86 158.22 244.56 C 158.69 245.55 159.17 246.54 159.64 247.53 C 159.90 248.04 160.42 249.06 160.68 249.56 C 161.66 251.59 162.60 253.67 164.05 255.42 C 164.67 256.44 165.34 257.43 166.02 258.42 C 166.65 259.44 167.33 260.43 168.03 261.41 C 168.65 262.44 169.33 263.43 170.03 264.42 C 170.65 265.43 171.32 266.42 171.99 267.41 C 172.85 268.86 173.98 270.10 175.08 271.37 C 175.98 273.35 177.68 274.75 179.12 276.32 C 180.12 278.80 182.43 280.34 184.14 282.30 C 186.16 286.37 190.34 288.80 193.13 292.31 C 193.95 294.49 195.88 295.89 197.43 297.52 C 205.11 305.18 212.78 312.84 220.44 320.53 C 222.08 322.09 223.49 324.05 225.70 324.86 C 228.06 326.82 229.78 329.64 232.68 330.88 C 234.25 332.31 235.64 334.04 237.63 334.92 C 238.89 336.01 240.11 337.20 241.64 337.93 C 242.91 339.04 244.15 340.27 245.76 340.94 C 246.12 341.25 246.85 341.88 247.22 342.20 C 249.06 343.24 250.62 344.68 252.40 345.81 C 254.12 346.70 255.74 347.75 257.41 348.74 C 259.12 349.69 260.75 350.76 262.38 351.84 C 263.10 352.17 263.82 352.50 264.54 352.83 C 266.16 353.67 267.80 354.49 269.43 355.33 C 269.94 355.58 270.97 356.08 271.48 356.33 C 272.85 357.01 274.23 357.69 275.61 358.38 C 277.40 358.65 279.01 359.54 280.60 360.36 C 283.52 361.15 286.28 362.48 289.31 362.83 C 290.57 363.41 291.96 363.58 293.32 363.80 C 294.82 364.73 296.61 364.53 298.29 364.73 C 299.38 365.40 300.62 365.70 301.91 365.59 C 307.95 365.56 314.00 365.56 320.04 365.59 C 321.35 365.71 322.63 365.41 323.73 364.67 C 325.72 364.51 327.87 364.89 329.68 363.81 C 331.03 363.58 332.41 363.40 333.69 362.85 C 335.62 362.51 337.50 361.95 339.39 361.44 C 341.07 360.55 342.78 359.70 344.45 358.80 C 345.18 358.51 345.90 358.22 346.63 357.94 C 347.96 357.04 349.16 355.97 350.37 354.92 C 353.44 353.08 356.24 350.42 357.94 347.24 C 358.25 346.88 358.89 346.15 359.20 345.78 C 360.22 343.91 361.67 342.34 362.92 340.63 C 363.22 339.91 363.52 339.19 363.82 338.48 C 366.49 334.70 366.23 329.37 363.97 325.46 C 362.86 323.66 361.31 322.20 359.88 320.68 C 359.43 319.68 358.88 318.72 358.08 317.98 C 347.36 307.31 336.68 296.61 326.00 285.91 C 325.27 285.23 324.48 284.63 323.63 284.13 C 322.55 283.64 321.47 283.14 320.42 282.63 C 319.06 282.46 317.88 281.85 316.78 281.09 C 316.51 281.40 315.96 282.03 315.69 282.35 C 314.25 282.42 312.84 282.58 311.43 282.84 C 310.50 283.58 309.57 284.31 308.64 285.05 C 306.24 286.20 304.64 288.40 302.70 290.14 C 299.37 291.58 297.46 294.93 294.69 297.13 C 291.18 298.78 289.04 302.28 286.17 304.77 C 285.01 304.01 283.81 303.34 282.61 302.66 C 280.43 301.75 278.49 300.41 276.50 299.17 C 274.79 298.24 273.17 297.16 271.49 296.19 C 269.74 295.22 268.09 294.11 266.39 293.06 C 265.42 292.35 264.44 291.65 263.44 291.00 C 262.40 290.31 261.35 289.65 260.26 289.08 C 259.89 288.75 259.15 288.11 258.78 287.79 C 254.94 285.71 252.05 282.28 248.31 280.13 C 243.41 275.41 238.59 270.59 233.87 265.69 C 232.65 262.78 229.81 261.06 227.86 258.70 C 227.28 257.09 226.02 255.90 224.93 254.63 C 223.86 252.75 222.37 251.17 221.20 249.36 C 220.10 247.78 219.08 246.14 217.95 244.59 C 217.33 243.56 216.66 242.56 215.98 241.58 C 215.34 240.56 214.65 239.57 213.95 238.61 C 212.43 236.33 211.00 234.00 209.81 231.53 C 208.88 229.59 207.76 227.71 207.31 225.58 C 209.88 222.91 213.25 220.74 214.87 217.31 C 219.27 212.99 223.43 208.44 227.00 203.41 C 227.84 202.17 228.65 200.91 229.46 199.64 C 230.60 197.36 231.40 194.41 229.60 192.22 C 229.61 191.81 229.63 191.01 229.64 190.61 C 228.79 189.25 227.92 187.90 226.99 186.60 C 226.34 185.45 225.55 184.40 224.60 183.49 C 219.04 178.01 213.53 172.46 208.02 166.93 C 207.27 166.11 206.31 165.56 205.31 165.13 C 199.20 159.63 193.99 153.12 187.54 148.03 C 183.58 145.64 178.68 146.17 174.32 146.92 Z" />
</g>
<g id="#000000ff">
<path fill="#000000" opacity="1.00" d=" M 174.32 146.92 C 178.68 146.17 183.58 145.64 187.54 148.03 C 193.99 153.12 199.20 159.63 205.31 165.13 C 206.31 165.56 207.27 166.11 208.02 166.93 C 213.53 172.46 219.04 178.01 224.60 183.49 C 225.55 184.40 226.34 185.45 226.99 186.60 C 227.92 187.90 228.79 189.25 229.64 190.61 C 229.63 191.01 229.61 191.81 229.60 192.22 C 231.40 194.41 230.60 197.36 229.46 199.64 C 228.65 200.91 227.84 202.17 227.00 203.41 C 223.43 208.44 219.27 212.99 214.87 217.31 C 213.25 220.74 209.88 222.91 207.31 225.58 C 207.76 227.71 208.88 229.59 209.81 231.53 C 211.00 234.00 212.43 236.33 213.95 238.61 C 214.65 239.57 215.34 240.56 215.98 241.58 C 216.66 242.56 217.33 243.56 217.95 244.59 C 219.08 246.14 220.10 247.78 221.20 249.36 C 222.37 251.17 223.86 252.75 224.93 254.63 C 226.02 255.90 227.28 257.09 227.86 258.70 C 229.81 261.06 232.65 262.78 233.87 265.69 C 238.59 270.59 243.41 275.41 248.31 280.13 C 252.05 282.28 254.94 285.71 258.78 287.79 C 259.15 288.11 259.89 288.75 260.26 289.08 C 261.35 289.65 262.40 290.31 263.44 291.00 C 264.44 291.65 265.42 292.35 266.39 293.06 C 268.09 294.11 269.74 295.22 271.49 296.19 C 273.17 297.16 274.79 298.24 276.50 299.17 C 278.49 300.41 280.43 301.75 282.61 302.66 C 283.81 303.34 285.01 304.01 286.17 304.77 C 289.04 302.28 291.18 298.78 294.69 297.13 C 297.46 294.93 299.37 291.58 302.70 290.14 C 304.64 288.40 306.24 286.20 308.64 285.05 C 309.57 284.31 310.50 283.58 311.43 282.84 C 312.84 282.58 314.25 282.42 315.69 282.35 C 315.96 282.03 316.51 281.40 316.78 281.09 C 317.88 281.85 319.06 282.46 320.42 282.63 C 321.47 283.14 322.55 283.64 323.63 284.13 C 324.48 284.63 325.27 285.23 326.00 285.91 C 336.68 296.61 347.36 307.31 358.08 317.98 C 358.88 318.72 359.43 319.68 359.88 320.68 C 361.31 322.20 362.86 323.66 363.97 325.46 C 366.23 329.37 366.49 334.70 363.82 338.48 C 363.52 339.19 363.22 339.91 362.92 340.63 C 361.67 342.34 360.22 343.91 359.20 345.78 C 358.89 346.15 358.25 346.88 357.94 347.24 C 356.24 350.42 353.44 353.08 350.37 354.92 C 349.16 355.97 347.96 357.04 346.63 357.94 C 345.90 358.22 345.18 358.51 344.45 358.80 C 342.78 359.70 341.07 360.55 339.39 361.44 C 337.50 361.95 335.62 362.51 333.69 362.85 C 332.41 363.40 331.03 363.58 329.68 363.81 C 327.87 364.89 325.72 364.51 323.73 364.67 C 322.63 365.41 321.35 365.71 320.04 365.59 C 314.00 365.56 307.95 365.56 301.91 365.59 C 300.62 365.70 299.38 365.40 298.29 364.73 C 296.61 364.53 294.82 364.73 293.32 363.80 C 291.96 363.58 290.57 363.41 289.31 362.83 C 286.28 362.48 283.52 361.15 280.60 360.36 C 279.01 359.54 277.40 358.65 275.61 358.38 C 274.23 357.69 272.85 357.01 271.48 356.33 C 270.97 356.08 269.94 355.58 269.43 355.33 C 267.80 354.49 266.16 353.67 264.54 352.83 C 263.82 352.50 263.10 352.17 262.38 351.84 C 260.75 350.76 259.12 349.69 257.41 348.74 C 255.74 347.75 254.12 346.70 252.40 345.81 C 250.62 344.68 249.06 343.24 247.22 342.20 C 246.85 341.88 246.12 341.25 245.76 340.94 C 244.15 340.27 242.91 339.04 241.64 337.93 C 240.11 337.20 238.89 336.01 237.63 334.92 C 235.64 334.04 234.25 332.31 232.68 330.88 C 229.78 329.64 228.06 326.82 225.70 324.86 C 223.49 324.05 222.08 322.09 220.44 320.53 C 212.78 312.84 205.11 305.18 197.43 297.52 C 195.88 295.89 193.95 294.49 193.13 292.31 C 190.34 288.80 186.16 286.37 184.14 282.30 C 182.43 280.34 180.12 278.80 179.12 276.32 C 177.68 274.75 175.98 273.35 175.08 271.37 C 173.98 270.10 172.85 268.86 171.99 267.41 C 171.32 266.42 170.65 265.43 170.03 264.42 C 169.33 263.43 168.65 262.44 168.03 261.41 C 167.33 260.43 166.65 259.44 166.02 258.42 C 165.34 257.43 164.67 256.44 164.05 255.42 C 162.60 253.67 161.66 251.59 160.68 249.56 C 160.42 249.06 159.90 248.04 159.64 247.53 C 159.17 246.54 158.69 245.55 158.22 244.56 C 157.86 243.86 157.51 243.16 157.17 242.46 C 156.67 241.50 156.17 240.54 155.67 239.59 C 155.00 238.18 154.30 236.78 153.63 235.38 C 152.22 230.80 149.75 226.50 149.19 221.66 C 148.53 220.42 148.45 219.01 148.20 217.67 C 146.96 215.55 147.54 213.05 147.36 210.74 C 146.56 209.64 146.28 208.33 146.41 206.99 C 146.49 202.07 146.32 197.13 146.48 192.21 C 146.70 191.73 147.14 190.78 147.36 190.30 C 147.55 187.96 146.93 185.39 148.26 183.29 C 148.26 179.40 149.88 175.78 151.38 172.27 C 151.39 171.86 151.41 171.05 151.43 170.65 C 152.04 169.57 152.64 168.48 153.23 167.39 C 154.39 165.40 155.67 163.48 157.02 161.61 C 158.94 158.60 161.53 155.86 164.63 154.07 C 165.89 152.97 167.13 151.84 168.58 150.99 C 169.58 150.33 170.58 149.67 171.62 149.08 C 172.52 148.36 173.42 147.64 174.32 146.92 Z" />
</g>
</svg>
