<?xml version="1.0" encoding="UTF-8" ?>
<!DOCTYPE svg PUBLIC "-//W3C//DTD SVG 1.1//EN" "http://www.w3.org/Graphics/SVG/1.1/DTD/svg11.dtd">
<svg width="512pt" height="512pt" viewBox="0 0 512 512" version="1.1" xmlns="http://www.w3.org/2000/svg">
<g id="#000000ff">
<path fill="#000000" opacity="1.00" d=" M 150.93 19.97 C 153.58 19.37 156.30 19.16 159.02 19.21 C 225.46 19.35 291.90 19.08 358.33 19.35 C 361.27 20.12 364.43 20.43 367.03 22.14 C 370.77 24.76 373.79 28.35 375.76 32.47 C 375.85 34.63 375.97 36.79 376.00 38.95 C 376.02 106.63 375.97 174.32 376.02 242.00 C 376.10 244.60 375.36 247.11 374.65 249.59 C 372.33 253.25 369.24 256.32 365.59 258.66 C 362.47 259.63 359.24 260.14 355.97 260.03 C 329.22 259.88 302.46 260.18 275.71 259.88 C 277.23 260.48 278.67 261.25 280.02 262.18 C 287.22 267.62 295.01 272.26 302.12 277.82 C 306.60 281.88 310.17 286.92 312.57 292.46 C 312.87 293.50 313.19 294.54 313.52 295.58 C 313.70 296.04 314.06 296.94 314.23 297.39 C 314.55 298.89 314.77 300.41 314.79 301.94 C 314.78 360.84 314.71 419.74 314.83 478.64 C 313.55 480.45 312.16 482.18 310.70 483.85 C 308.98 483.80 307.27 483.77 305.56 483.74 C 298.09 478.17 292.01 471.06 285.33 464.62 C 278.82 457.87 271.57 451.75 266.22 443.99 C 264.41 440.95 263.05 437.67 261.45 434.52 C 261.13 433.48 260.80 432.45 260.46 431.43 C 260.31 430.97 260.00 430.07 259.84 429.61 C 259.10 425.78 258.17 421.94 258.21 418.01 C 258.24 368.33 258.24 318.66 258.21 268.99 C 258.08 265.84 259.13 262.84 260.18 259.93 C 257.37 259.99 254.57 260.00 251.76 259.94 C 252.44 261.81 253.05 263.70 253.69 265.58 C 253.91 316.72 253.68 367.87 253.80 419.01 C 253.82 420.69 253.54 422.35 253.02 423.95 C 252.87 425.43 252.75 426.92 252.64 428.41 C 252.23 429.41 251.84 430.41 251.45 431.43 C 251.15 432.45 250.85 433.48 250.57 434.52 C 248.96 437.67 247.59 440.95 245.77 443.99 C 240.42 451.77 233.16 457.89 226.65 464.65 C 219.97 471.07 213.90 478.18 206.44 483.74 C 204.72 483.77 203.01 483.80 201.31 483.85 C 199.84 482.17 198.44 480.44 197.17 478.62 C 197.32 419.40 197.17 360.18 197.24 300.97 C 197.29 298.01 198.63 295.31 199.41 292.51 C 201.54 287.61 204.53 283.07 208.35 279.32 C 216.47 272.32 225.88 267.05 234.32 260.45 C 234.86 260.37 235.95 260.21 236.49 260.13 C 208.99 259.82 181.48 260.09 153.97 260.00 C 151.39 260.00 148.89 259.35 146.42 258.66 C 142.76 256.33 139.66 253.25 137.34 249.58 C 136.64 247.13 135.91 244.65 135.98 242.07 C 136.02 178.37 135.99 114.68 136.00 50.98 C 136.02 44.81 135.86 38.64 136.24 32.48 C 139.16 26.64 144.12 20.93 150.93 19.97 M 232.93 67.96 C 212.56 115.86 192.70 164.00 172.52 211.99 C 189.00 212.01 205.47 212.00 221.95 211.99 C 223.98 206.05 226.44 200.25 228.49 194.31 C 229.12 193.61 229.75 192.90 230.38 192.20 C 247.13 192.27 263.88 192.26 280.63 192.20 C 281.25 192.91 281.88 193.62 282.52 194.34 C 284.53 200.32 287.27 206.02 289.30 212.00 C 306.02 211.99 322.75 212.01 339.47 211.99 C 323.50 173.83 307.70 135.58 291.50 97.52 C 287.52 87.60 283.52 77.67 279.07 67.96 C 263.69 68.03 248.31 68.03 232.93 67.96 Z" />
<path fill="#000000" opacity="1.00" d=" M 255.17 122.78 C 255.96 123.63 256.76 124.48 257.55 125.34 C 260.39 134.18 264.06 142.75 267.15 151.52 C 267.95 153.95 269.02 156.27 270.18 158.55 C 268.91 159.30 267.62 160.15 266.07 159.99 C 258.36 160.07 250.65 159.94 242.94 160.02 C 242.51 159.73 241.66 159.14 241.23 158.85 C 245.84 146.81 249.98 134.58 255.17 122.78 Z" />
<path fill="#000000" opacity="1.00" d=" M 120.02 244.01 C 122.44 243.10 125.04 243.18 127.58 243.13 C 128.27 243.88 128.96 244.64 129.66 245.41 C 130.27 248.33 130.81 251.27 130.89 254.27 C 133.13 260.19 138.38 265.12 144.98 265.20 C 167.16 265.25 189.35 265.25 211.54 265.19 C 212.38 266.02 213.23 266.84 214.09 267.67 C 210.50 270.40 206.62 272.74 202.50 274.58 C 199.45 275.47 196.43 276.47 193.43 277.51 C 192.07 277.83 190.71 278.15 189.36 278.51 C 185.90 278.95 182.50 279.84 179.00 279.79 C 132.01 279.75 85.02 279.78 38.03 279.78 C 34.78 279.90 31.75 278.37 29.53 276.08 C 31.75 273.62 34.39 271.60 37.52 270.45 C 39.23 269.88 40.91 269.22 42.57 268.52 C 45.28 267.63 47.97 266.68 50.59 265.55 C 52.27 264.89 53.94 264.19 55.60 263.48 C 58.31 262.65 60.98 261.67 63.56 260.51 C 66.27 259.62 68.97 258.68 71.59 257.54 C 73.26 256.89 74.92 256.20 76.57 255.50 C 79.29 254.63 81.98 253.67 84.60 252.54 C 86.28 251.89 87.94 251.19 89.59 250.47 C 91.58 249.82 93.56 249.17 95.55 248.51 C 96.56 248.16 97.57 247.80 98.58 247.43 C 105.69 246.03 112.72 243.94 120.02 244.01 Z" />
<path fill="#000000" opacity="1.00" d=" M 384.37 243.14 C 386.92 243.18 389.54 243.09 391.97 244.01 C 400.29 244.15 408.45 246.20 416.43 248.42 C 417.43 248.79 418.43 249.16 419.44 249.52 C 420.44 249.85 421.45 250.17 422.47 250.49 C 424.10 251.20 425.74 251.90 427.40 252.54 C 430.03 253.67 432.71 254.64 435.44 255.50 C 437.08 256.20 438.73 256.89 440.40 257.54 C 443.01 258.68 445.70 259.61 448.41 260.50 C 451.00 261.67 453.68 262.63 456.40 263.50 C 458.07 264.20 459.75 264.88 461.47 265.49 C 462.48 265.97 463.50 266.46 464.52 266.95 C 466.15 267.43 467.77 267.94 469.40 268.45 C 471.05 269.19 472.74 269.88 474.48 270.45 C 477.55 271.58 480.16 273.55 482.36 275.95 C 481.46 276.82 480.56 277.69 479.66 278.56 C 478.54 278.92 477.44 279.29 476.34 279.68 C 428.91 279.91 381.47 279.67 334.03 279.80 C 328.79 279.90 323.67 278.62 318.57 277.57 C 315.59 276.47 312.57 275.46 309.52 274.59 C 305.38 272.74 301.45 270.43 297.92 267.58 C 298.77 266.78 299.63 265.99 300.49 265.20 C 322.67 265.24 344.86 265.25 367.05 265.20 C 373.66 265.11 378.91 260.14 381.13 254.20 C 381.18 251.23 381.73 248.31 382.34 245.41 C 383.01 244.65 383.69 243.90 384.37 243.14 Z" />
<path fill="#000000" opacity="1.00" d=" M 24.05 286.01 C 25.62 285.46 27.27 285.16 28.94 285.20 C 75.97 285.27 123.01 285.20 170.05 285.23 C 171.39 285.24 172.68 285.61 173.95 286.01 C 175.47 286.12 177.00 286.21 178.53 286.28 C 183.91 288.70 188.30 293.12 190.73 298.49 C 191.25 300.60 191.83 302.72 191.79 304.91 C 191.75 360.94 191.78 416.96 191.77 472.99 C 191.77 475.58 191.14 478.10 190.72 480.65 C 187.80 485.01 184.01 488.86 179.61 491.73 C 176.75 492.23 173.89 492.86 170.96 492.80 C 122.64 492.74 74.33 492.79 26.01 492.77 C 23.43 492.75 20.92 492.14 18.39 491.73 C 13.95 488.85 10.18 484.94 7.19 480.58 C 6.72 478.41 6.20 476.22 6.22 473.99 C 6.23 417.66 6.24 361.33 6.21 305.00 C 6.16 302.77 6.74 300.62 7.27 298.49 C 9.70 293.11 14.09 288.71 19.47 286.28 C 21.00 286.21 22.53 286.12 24.05 286.01 M 37.74 323.74 C 37.80 367.25 37.80 410.75 37.74 454.26 C 64.50 454.05 91.28 454.50 118.03 454.04 C 120.29 453.21 122.71 453.16 125.08 452.97 C 128.27 452.24 131.49 451.59 134.60 450.53 C 139.64 449.19 144.21 446.67 148.41 443.62 C 152.73 441.09 154.97 436.40 157.15 432.11 C 159.01 428.67 158.93 424.66 160.13 421.01 C 160.05 415.36 159.33 409.51 156.91 404.35 C 153.75 396.68 146.05 391.96 138.42 389.60 C 136.61 388.56 134.92 387.35 133.27 386.09 C 137.14 382.00 143.23 381.22 146.91 376.90 C 150.28 374.04 152.29 370.09 154.13 366.17 C 154.21 365.56 154.38 364.36 154.46 363.76 C 155.80 357.42 155.84 350.55 153.60 344.39 C 150.40 334.39 140.40 328.62 130.68 326.45 C 129.01 326.09 127.32 325.76 125.65 325.43 C 121.21 324.01 116.39 325.65 112.04 323.96 C 87.28 323.50 62.50 323.94 37.74 323.74 Z" />
<path fill="#000000" opacity="1.00" d=" M 333.47 286.35 C 337.01 286.16 340.46 285.18 344.01 285.20 C 390.01 285.24 436.02 285.24 482.02 285.20 C 485.57 285.18 489.02 286.14 492.56 286.36 C 497.95 288.69 502.31 293.13 504.69 298.48 C 504.81 298.96 505.05 299.90 505.18 300.38 C 505.55 301.87 505.78 303.40 505.80 304.95 C 505.74 358.97 505.79 412.99 505.77 467.01 C 505.68 470.89 506.23 474.89 505.13 478.68 C 505.04 479.18 504.87 480.16 504.78 480.65 C 501.78 484.97 498.03 488.86 493.62 491.73 C 491.10 492.14 488.61 492.76 486.05 492.77 C 437.69 492.79 389.33 492.74 340.97 492.79 C 338.06 492.86 335.22 492.22 332.38 491.73 C 327.99 488.83 324.16 485.01 321.27 480.62 C 320.86 478.07 320.23 475.55 320.23 472.96 C 320.23 419.29 320.23 365.63 320.23 311.96 C 320.30 308.10 319.81 304.15 320.83 300.37 C 320.95 299.89 321.19 298.95 321.31 298.48 C 323.69 293.12 328.06 288.67 333.47 286.35 M 400.33 323.46 C 398.01 324.03 395.71 324.71 393.45 325.49 C 392.42 325.80 391.41 326.12 390.39 326.45 C 373.53 332.76 359.60 346.46 353.50 363.45 C 352.99 364.56 352.49 365.68 351.98 366.80 C 351.56 368.99 351.03 371.17 350.53 373.35 C 348.21 380.70 348.74 388.42 348.79 396.01 C 348.93 399.29 349.81 402.48 350.53 405.67 C 351.02 407.83 351.55 410.00 351.97 412.19 C 352.48 413.30 352.99 414.41 353.50 415.54 C 356.39 423.84 361.47 431.18 367.39 437.61 C 374.28 444.16 382.55 449.09 391.39 452.55 C 392.40 452.87 393.42 453.20 394.45 453.53 C 397.53 454.61 400.74 455.24 403.92 455.95 C 409.94 456.57 415.94 457.89 422.02 457.03 C 424.59 456.07 427.35 456.19 430.05 456.02 C 432.23 455.39 434.47 454.97 436.70 454.51 C 439.77 453.88 442.73 452.82 445.59 451.55 C 459.36 446.57 469.77 435.32 477.31 423.13 C 468.72 418.64 460.48 413.52 451.97 408.87 C 448.79 407.30 445.75 405.49 442.87 403.43 C 438.90 409.92 433.61 415.67 426.50 418.72 C 420.66 420.33 414.32 420.30 408.48 418.72 C 401.91 415.56 396.88 409.78 393.33 403.53 C 390.57 395.18 390.43 386.06 392.36 377.52 C 394.43 373.39 396.43 369.08 399.79 365.83 C 402.51 362.99 406.03 361.14 409.48 359.35 C 414.72 357.87 420.25 357.83 425.47 359.38 C 432.73 362.05 437.91 368.10 442.24 374.25 C 453.22 366.80 465.22 360.96 476.38 353.75 C 470.88 345.15 464.26 336.94 455.42 331.59 C 451.81 329.64 448.02 328.01 444.46 325.96 C 443.99 325.86 443.06 325.66 442.59 325.57 C 440.34 324.73 438.03 324.02 435.69 323.47 C 433.47 323.00 431.22 322.64 429.06 321.93 C 419.48 321.88 409.69 320.83 400.33 323.46 Z" />
<path fill="#000000" opacity="1.00" d=" M 80.43 355.20 C 88.74 355.31 97.04 355.10 105.35 355.32 C 106.46 355.71 107.58 356.08 108.70 356.44 C 110.96 358.53 113.15 360.73 114.81 363.34 C 114.80 365.10 114.80 366.85 114.82 368.62 C 113.05 371.97 110.00 374.26 106.53 375.63 C 97.95 377.55 89.14 376.51 80.43 376.80 C 79.69 376.05 78.94 375.31 78.20 374.57 C 78.24 368.85 78.24 363.14 78.20 357.43 C 78.94 356.68 79.69 355.94 80.43 355.20 Z" />
<path fill="#000000" opacity="1.00" d=" M 80.43 401.20 C 89.34 401.32 98.26 401.10 107.18 401.28 C 111.90 401.35 114.70 405.50 117.79 408.44 C 117.77 410.84 117.78 413.25 117.83 415.65 C 116.06 418.97 112.74 420.85 109.58 422.63 C 99.99 424.66 90.15 423.43 80.43 423.80 C 79.69 423.05 78.94 422.30 78.19 421.56 C 78.25 415.50 78.24 409.45 78.21 403.39 C 78.95 402.66 79.69 401.93 80.43 401.20 Z" />
</g>
</svg>
