<?xml version="1.0" encoding="UTF-8" ?>
<!DOCTYPE svg PUBLIC "-//W3C//DTD SVG 1.1//EN" "http://www.w3.org/Graphics/SVG/1.1/DTD/svg11.dtd">
<svg width="512pt" height="512pt" viewBox="0 0 512 512" version="1.1" xmlns="http://www.w3.org/2000/svg">
<g id="#000000ff">
<path fill="#000000" opacity="1.00" d=" M 25.85 80.39 C 32.19 77.57 39.06 75.88 46.03 76.01 C 185.99 76.00 325.95 76.00 465.92 76.01 C 472.90 75.87 479.79 77.56 486.14 80.39 C 476.12 90.93 465.55 100.96 455.32 111.30 C 405.01 161.36 354.71 211.41 304.40 261.46 C 296.92 268.61 290.12 276.50 281.88 282.80 C 270.79 290.67 256.00 293.14 243.01 289.03 C 235.36 286.98 228.79 282.28 223.11 276.90 C 157.96 212.08 92.81 147.25 27.66 82.43 C 27.03 81.77 26.43 81.09 25.85 80.39 Z" />
<path fill="#000000" opacity="1.00" d=" M 4.40 101.84 C 27.84 124.61 50.81 147.88 74.07 170.84 C 102.63 199.23 131.22 227.60 159.76 256.00 C 128.39 287.21 96.99 318.38 65.60 349.57 C 45.17 369.74 25.00 390.19 4.40 410.17 C 1.96 404.68 0.38 398.82 0.00 392.81 L 0.00 119.25 C 0.36 113.22 1.96 107.35 4.40 101.84 Z" />
<path fill="#000000" opacity="1.00" d=" M 352.24 256.00 C 404.02 204.61 455.65 153.05 507.57 101.80 C 510.03 107.31 511.63 113.19 512.00 119.23 L 512.00 392.74 C 511.64 398.77 510.04 404.64 507.61 410.16 C 485.97 389.20 464.82 367.72 443.37 346.57 C 413.00 316.38 382.60 286.21 352.24 256.00 Z" />
<path fill="#000000" opacity="1.00" d=" M 62.70 394.76 C 102.14 355.58 141.56 316.39 181.00 277.23 C 188.83 284.94 196.46 292.86 204.38 300.47 C 217.36 312.92 234.99 320.35 252.96 321.00 C 272.92 321.91 293.11 314.38 307.53 300.54 C 315.49 292.91 323.14 284.97 331.00 277.23 C 377.80 323.70 424.57 370.20 471.36 416.67 C 476.24 421.70 481.49 426.38 486.13 431.63 C 479.79 434.42 472.94 436.12 465.97 435.99 C 326.33 436.01 186.68 435.99 47.03 436.00 C 39.74 436.22 32.52 434.60 25.88 431.63 C 37.85 419.06 50.48 407.09 62.70 394.76 Z" />
</g>
</svg>
