<?xml version="1.0" encoding="UTF-8" ?>
<!DOCTYPE svg PUBLIC "-//W3C//DTD SVG 1.1//EN" "http://www.w3.org/Graphics/SVG/1.1/DTD/svg11.dtd">
<svg width="512pt" height="512pt" viewBox="0 0 512 512" version="1.1" xmlns="http://www.w3.org/2000/svg">
<g id="#000000ff">
<path fill="#000000" opacity="1.00" d=" M 254.48 0.00 L 258.37 0.00 C 279.97 0.72 301.60 5.35 320.99 15.05 C 361.58 34.34 392.36 72.83 402.55 116.56 C 406.04 130.44 407.14 144.83 406.90 159.10 C 406.99 163.26 403.37 166.52 399.37 166.80 C 396.11 166.52 392.87 164.40 392.11 161.09 C 391.35 156.46 392.00 151.74 391.56 147.08 C 390.92 120.46 382.06 94.11 366.57 72.46 C 355.52 57.00 341.30 43.75 324.87 34.17 C 284.09 9.51 229.82 8.88 188.88 33.51 C 148.19 56.25 121.53 101.48 120.47 147.99 C 119.97 173.15 120.39 198.32 120.25 223.49 C 123.28 223.50 126.31 223.50 129.35 223.50 C 138.47 223.50 147.58 223.49 156.70 223.50 C 156.78 199.02 156.62 174.54 156.78 150.06 C 156.98 126.27 166.04 102.68 182.00 85.02 C 197.60 67.35 219.74 55.56 243.15 52.63 C 267.20 49.20 292.00 55.73 312.11 69.11 C 323.19 77.56 333.30 87.52 340.40 99.61 C 350.07 115.25 355.10 133.60 355.21 151.97 C 355.30 175.80 355.24 199.63 355.23 223.46 C 358.27 223.50 361.30 223.51 364.34 223.50 C 373.48 223.49 382.62 223.52 391.75 223.49 C 391.78 213.98 391.67 204.48 391.80 194.98 C 391.56 190.70 395.23 187.19 399.37 186.97 C 403.10 187.27 406.68 190.08 406.84 194.00 C 407.19 203.83 406.82 213.67 407.01 223.50 C 419.66 223.49 432.32 223.51 444.98 223.49 C 450.48 222.63 455.28 227.53 454.42 233.01 C 454.39 323.00 454.42 413.00 454.41 502.99 C 454.88 507.32 451.82 511.51 447.42 512.00 L 64.77 512.00 C 60.73 511.64 57.40 508.06 57.64 503.95 C 57.55 491.29 57.58 478.62 57.63 465.96 C 57.30 461.64 60.82 457.95 65.04 457.60 C 69.09 457.79 72.77 461.07 72.71 465.26 C 72.90 475.76 72.71 486.27 72.80 496.77 C 81.48 496.79 90.17 496.77 98.86 496.78 C 212.31 496.77 325.76 496.79 439.21 496.78 C 439.22 410.76 439.22 324.75 439.20 238.73 C 325.74 238.71 212.27 238.73 98.81 238.72 C 90.14 238.73 81.47 238.70 72.80 238.74 C 72.75 302.17 72.83 365.60 72.76 429.03 C 73.08 433.44 69.45 437.36 65.04 437.46 C 61.90 437.11 58.83 435.09 58.00 431.93 C 57.35 428.98 57.63 425.94 57.59 422.95 C 57.60 361.30 57.59 299.66 57.59 238.01 C 57.62 235.02 57.36 231.99 57.98 229.04 C 58.84 225.76 62.11 223.49 65.46 223.55 C 78.65 223.41 91.83 223.55 105.02 223.49 C 105.04 201.31 105.03 179.14 105.02 156.97 C 104.96 141.70 106.21 126.31 110.42 111.57 C 120.44 73.79 146.03 40.45 179.83 20.85 C 202.28 7.40 228.37 0.54 254.48 0.00 M 194.20 94.16 C 180.22 109.15 172.20 129.46 172.00 149.94 C 171.87 174.46 171.97 198.97 171.95 223.49 C 227.98 223.51 284.02 223.51 340.05 223.49 C 340.07 202.66 340.05 181.83 340.06 161.00 C 340.04 153.64 340.24 146.22 339.11 138.92 C 336.44 119.73 326.72 101.64 312.30 88.71 C 296.12 73.87 273.88 65.89 251.96 67.09 C 230.13 68.00 208.89 78.00 194.20 94.16 Z" />
<path fill="#000000" opacity="1.00" d=" M 223.29 306.32 C 235.82 294.82 254.77 290.11 270.95 296.03 C 291.53 302.22 306.06 323.60 304.50 345.01 C 303.78 359.74 295.75 373.70 283.70 382.10 C 285.62 397.11 287.65 412.11 289.55 427.13 C 290.44 431.74 286.68 436.47 281.91 436.32 C 264.62 436.41 247.31 436.42 230.01 436.32 C 225.67 436.39 221.89 432.35 222.43 428.00 C 224.22 412.68 226.44 397.40 228.32 382.09 C 217.35 374.46 209.66 362.23 207.90 348.95 C 205.52 333.36 211.64 316.87 223.29 306.32 M 245.56 310.45 C 235.77 313.58 227.73 321.57 224.46 331.31 C 219.34 345.34 225.18 362.32 237.91 370.14 C 241.17 371.90 244.68 374.81 243.99 378.98 C 242.35 393.04 240.32 407.07 238.58 421.13 C 250.19 421.18 261.79 421.16 273.39 421.14 C 271.71 407.09 269.65 393.08 268.01 379.02 C 267.43 375.44 269.99 372.40 272.99 370.86 C 283.59 364.71 290.27 352.36 289.27 340.11 C 288.74 329.12 282.24 318.69 272.71 313.26 C 264.61 308.50 254.45 307.46 245.56 310.45 Z" />
</g>
<g id="#d3dae0ff">
<path fill="#d3dae0" opacity="1.00" d=" M 188.88 33.51 C 229.82 8.88 284.09 9.51 324.87 34.17 C 341.30 43.75 355.52 57.00 366.57 72.46 C 382.06 94.11 390.92 120.46 391.56 147.08 C 392.00 151.74 391.35 156.46 392.11 161.09 C 392.87 164.40 396.11 166.52 399.37 166.80 C 399.37 173.52 399.38 180.25 399.37 186.97 C 395.23 187.19 391.56 190.70 391.80 194.98 C 391.67 204.48 391.78 213.98 391.75 223.49 C 382.62 223.52 373.48 223.49 364.34 223.50 C 364.42 200.68 364.34 177.86 364.39 155.04 C 364.41 145.90 363.78 136.68 361.35 127.84 C 355.59 105.30 340.71 85.34 320.96 73.13 C 318.16 71.48 315.47 69.36 312.11 69.11 C 292.00 55.73 267.20 49.20 243.15 52.63 C 219.74 55.56 197.60 67.35 182.00 85.02 C 166.04 102.68 156.98 126.27 156.78 150.06 C 156.62 174.54 156.78 199.02 156.70 223.50 C 147.58 223.49 138.47 223.50 129.35 223.50 C 129.44 199.34 129.31 175.18 129.41 151.03 C 129.61 135.71 131.79 120.35 136.75 105.83 C 145.78 78.35 163.47 53.80 186.64 36.50 C 187.64 35.72 188.73 34.89 188.88 33.51 Z" />
</g>
<g id="#899ea8ff">
<path fill="#899ea8" opacity="1.00" d=" M 120.47 147.99 C 121.53 101.48 148.19 56.25 188.88 33.51 C 188.73 34.89 187.64 35.72 186.64 36.50 C 163.47 53.80 145.78 78.35 136.75 105.83 C 131.79 120.35 129.61 135.71 129.41 151.03 C 129.31 175.18 129.44 199.34 129.35 223.50 C 126.31 223.50 123.28 223.50 120.25 223.49 C 120.39 198.32 119.97 173.15 120.47 147.99 Z" />
<path fill="#899ea8" opacity="1.00" d=" M 312.11 69.11 C 315.47 69.36 318.16 71.48 320.96 73.13 C 340.71 85.34 355.59 105.30 361.35 127.84 C 363.78 136.68 364.41 145.90 364.39 155.04 C 364.34 177.86 364.42 200.68 364.34 223.50 C 361.30 223.51 358.27 223.50 355.23 223.46 C 355.24 199.63 355.30 175.80 355.21 151.97 C 355.10 133.60 350.07 115.25 340.40 99.61 C 333.30 87.52 323.19 77.56 312.11 69.11 Z" />
</g>
<g id="#e48900ff">
<path fill="#e48900" opacity="1.00" d=" M 72.80 238.74 C 81.47 238.70 90.14 238.73 98.81 238.72 C 98.65 294.48 98.76 350.24 98.74 406.00 C 98.80 436.26 98.56 466.53 98.86 496.78 C 90.17 496.77 81.48 496.79 72.80 496.77 C 72.71 486.27 72.90 475.76 72.71 465.26 C 72.77 461.07 69.09 457.79 65.04 457.60 C 65.02 450.89 65.02 444.17 65.04 437.46 C 69.45 437.36 73.08 433.44 72.76 429.03 C 72.83 365.60 72.75 302.17 72.80 238.74 Z" />
</g>
<g id="#f79f00ff">
<path fill="#f79f00" opacity="1.00" d=" M 98.81 238.72 C 212.27 238.73 325.74 238.71 439.20 238.73 C 439.22 324.75 439.22 410.76 439.21 496.78 C 325.76 496.79 212.31 496.77 98.86 496.78 C 98.56 466.53 98.80 436.26 98.74 406.00 C 98.76 350.24 98.65 294.48 98.81 238.72 M 223.29 306.32 C 211.64 316.87 205.52 333.36 207.90 348.95 C 209.66 362.23 217.35 374.46 228.32 382.09 C 226.44 397.40 224.22 412.68 222.43 428.00 C 221.89 432.35 225.67 436.39 230.01 436.32 C 247.31 436.42 264.62 436.41 281.91 436.32 C 286.68 436.47 290.44 431.74 289.55 427.13 C 287.65 412.11 285.62 397.11 283.70 382.10 C 295.75 373.70 303.78 359.74 304.50 345.01 C 306.06 323.60 291.53 302.22 270.95 296.03 C 254.77 290.11 235.82 294.82 223.29 306.32 Z" />
</g>
<g id="#3e3d4cff">
<path fill="#3e3d4c" opacity="1.00" d=" M 245.56 310.45 C 254.45 307.46 264.61 308.50 272.71 313.26 C 282.24 318.69 288.74 329.12 289.27 340.11 C 290.27 352.36 283.59 364.71 272.99 370.86 C 269.99 372.40 267.43 375.44 268.01 379.02 C 269.65 393.08 271.71 407.09 273.39 421.14 C 261.79 421.16 250.19 421.18 238.58 421.13 C 240.32 407.07 242.35 393.04 243.99 378.98 C 244.68 374.81 241.17 371.90 237.91 370.14 C 225.18 362.32 219.34 345.34 224.46 331.31 C 227.73 321.57 235.77 313.58 245.56 310.45 Z" />
</g>
</svg>
