<?xml version="1.0" encoding="UTF-8" ?>
<!DOCTYPE svg PUBLIC "-//W3C//DTD SVG 1.1//EN" "http://www.w3.org/Graphics/SVG/1.1/DTD/svg11.dtd">
<svg width="512pt" height="512pt" viewBox="0 0 512 512" version="1.1" xmlns="http://www.w3.org/2000/svg">
<g id="#000000ff">
<path fill="#000000" opacity="1.00" d=" M 494.42 0.00 L 497.45 0.00 C 504.79 0.72 510.87 6.68 512.00 13.93 L 512.00 17.78 C 492.20 149.47 472.85 281.23 453.15 412.93 C 452.09 422.56 441.17 429.25 432.10 425.75 C 357.58 400.33 283.09 374.79 208.56 349.38 C 281.53 261.32 354.73 173.44 427.62 85.31 C 333.00 165.82 238.77 246.78 144.25 327.41 C 101.83 312.88 59.39 298.39 16.95 283.89 C 12.78 282.39 8.12 281.42 4.89 278.14 C 2.25 275.70 0.84 272.29 0.00 268.86 L 0.00 265.42 C 0.56 260.05 3.72 255.00 8.58 252.53 C 166.64 169.95 324.75 87.43 482.81 4.85 C 486.52 2.90 490.20 0.64 494.42 0.00 Z" />
<path fill="#000000" opacity="1.00" d=" M 186.68 375.71 C 215.60 385.58 244.52 395.43 273.41 405.37 C 254.95 430.59 236.40 455.73 217.92 480.94 C 214.97 485.56 210.67 489.84 204.96 490.49 C 195.80 492.07 186.57 484.24 186.70 474.94 C 186.63 441.87 186.67 408.79 186.68 375.71 Z" />
</g>
</svg>
