<?xml version="1.0" encoding="UTF-8" ?>
<!DOCTYPE svg PUBLIC "-//W3C//DTD SVG 1.1//EN" "http://www.w3.org/Graphics/SVG/1.1/DTD/svg11.dtd">
<svg width="211pt" height="208pt" viewBox="0 0 211 208" version="1.1" xmlns="http://www.w3.org/2000/svg">
<g id="#ffffffff">
<path fill="#ffffff" opacity="1.00" d=" M 91.28 101.77 L 91.43 101.43 C 95.32 107.82 100.76 114.23 108.30 116.15 C 106.31 117.61 103.37 119.16 103.71 122.08 C 105.04 124.70 108.74 126.48 107.89 129.85 C 107.56 136.97 104.70 143.62 104.17 150.72 C 103.85 153.13 103.59 155.55 103.26 157.97 L 103.07 159.29 C 102.74 162.29 102.53 165.31 102.17 168.32 L 102.05 169.25 C 101.81 171.30 101.61 173.36 101.44 175.43 C 101.38 176.24 101.26 177.86 101.20 178.67 C 98.58 178.50 95.96 178.31 93.35 177.97 C 93.19 176.61 93.04 175.27 92.90 173.92 C 92.62 170.87 92.37 167.82 92.05 164.77 C 91.94 163.59 91.82 162.41 91.68 161.24 C 91.40 158.26 91.14 155.29 90.79 152.32 C 90.07 143.21 89.35 134.09 88.61 124.98 C 88.28 117.20 87.33 108.88 91.28 101.77 Z" />
<path fill="#ffffff" opacity="1.00" d=" M 119.25 108.16 C 119.85 106.10 120.20 103.98 120.91 101.95 C 121.20 102.70 121.78 104.20 122.07 104.95 C 124.20 110.82 126.30 116.78 126.96 123.04 C 128.11 131.98 129.48 140.91 129.87 149.93 C 129.96 151.55 130.07 153.17 130.14 154.79 C 130.28 158.29 130.45 161.79 130.57 165.29 C 130.59 166.64 130.62 167.99 130.67 169.35 C 130.67 169.77 130.68 170.61 130.69 171.03 C 130.71 171.79 130.74 173.30 130.76 174.05 C 127.43 175.19 124.04 176.12 120.64 176.98 C 120.60 176.36 120.54 175.10 120.50 174.48 C 120.34 170.25 120.15 166.03 119.77 161.82 L 119.72 160.92 C 119.50 157.85 119.32 154.78 118.81 151.74 C 117.88 143.94 114.62 136.69 113.37 128.99 C 112.42 125.47 117.71 122.86 115.44 119.53 C 114.47 117.56 112.19 117.01 110.36 116.15 C 114.35 115.03 117.51 111.83 119.25 108.16 Z" />
</g>
<g id="#000000ff">
<path fill="#000000" opacity="1.00" d=" M 92.54 17.69 C 107.17 15.65 122.42 17.29 136.12 22.89 C 155.22 30.44 171.20 45.43 180.17 63.89 C 188.99 81.77 191.03 102.84 186.03 122.12 C 181.57 139.68 171.17 155.61 157.05 166.92 C 141.94 179.19 122.42 185.93 102.95 185.50 C 82.57 185.39 62.36 177.43 47.36 163.63 C 34.41 151.90 25.02 136.13 21.54 118.95 C 14.96 90.76 24.71 59.52 46.03 39.97 C 58.80 28.06 75.20 20.06 92.54 17.69 M 82.31 26.41 C 68.06 30.43 55.25 38.98 45.50 50.06 L 45.50 50.31 C 42.60 53.15 40.32 56.52 38.15 59.93 C 34.69 65.13 32.18 70.91 30.18 76.80 C 28.67 80.64 27.93 84.76 27.38 88.83 C 26.68 92.98 26.49 97.18 26.56 101.38 C 26.12 111.37 28.62 121.31 32.36 130.52 C 35.31 138.54 40.17 145.84 45.94 152.12 C 46.65 149.28 46.32 146.33 45.80 143.50 C 46.71 139.10 48.35 134.88 49.03 130.43 C 50.08 126.30 51.34 122.22 52.51 118.12 C 54.24 117.24 56.03 116.48 57.75 115.58 C 60.42 114.68 63.09 113.76 65.79 112.98 L 65.69 112.83 C 71.47 111.77 77.16 110.31 82.86 108.91 L 82.80 108.77 C 86.54 107.83 88.92 104.58 91.28 101.77 C 87.33 108.88 88.28 117.20 88.61 124.98 C 89.35 134.09 90.07 143.21 90.79 152.32 C 89.92 151.37 89.14 150.35 88.46 149.25 L 89.52 147.99 C 82.37 144.13 73.50 143.27 65.79 145.86 C 64.28 147.47 64.99 150.01 65.36 151.98 C 66.35 154.77 67.46 157.52 68.94 160.10 L 69.42 159.89 C 72.94 164.47 77.58 168.69 83.31 170.13 C 86.21 172.03 89.61 172.92 92.90 173.92 C 93.04 175.27 93.19 176.61 93.35 177.97 C 95.96 178.31 98.58 178.50 101.20 178.67 C 101.26 177.86 101.38 176.24 101.44 175.43 C 107.48 175.93 113.72 175.91 119.55 174.09 L 120.50 174.48 C 120.54 175.10 120.60 176.36 120.64 176.98 C 124.04 176.12 127.43 175.19 130.76 174.05 C 130.74 173.30 130.71 171.79 130.69 171.03 C 136.48 168.64 142.11 165.02 145.55 159.66 L 146.06 159.89 C 147.44 157.41 148.78 154.82 149.14 151.97 C 148.95 150.46 147.55 149.45 146.06 149.64 C 140.62 149.87 135.00 147.00 129.87 149.93 C 129.48 140.91 128.11 131.98 126.96 123.04 C 126.30 116.78 124.20 110.82 122.07 104.95 L 122.37 105.78 L 122.70 105.35 C 123.78 106.70 125.05 107.87 126.42 108.92 C 131.96 111.12 137.84 112.34 143.48 114.25 C 147.15 115.99 151.23 117.02 154.47 119.56 C 156.25 122.21 156.83 125.44 157.84 128.43 C 158.44 130.94 158.73 133.50 158.97 136.07 C 159.29 139.08 159.37 142.12 159.15 145.14 C 158.28 148.82 158.31 152.63 158.39 156.38 C 165.69 149.35 171.75 140.86 175.58 131.45 C 177.08 128.06 178.27 124.55 179.28 120.99 C 180.27 116.24 181.62 111.47 181.53 106.59 C 182.56 93.45 180.38 79.91 174.47 68.06 L 174.55 67.98 C 163.50 44.21 139.72 26.54 113.57 23.86 C 103.14 22.54 92.36 23.25 82.31 26.41 Z" />
<path fill="#000000" opacity="1.00" d=" M 117.42 48.72 C 117.16 47.53 116.93 46.34 116.68 45.15 C 121.47 47.90 124.95 52.62 127.45 57.44 C 128.71 62.67 128.19 68.05 127.22 73.28 C 127.63 73.71 128.44 74.58 128.85 75.02 C 129.08 78.53 128.39 82.08 126.15 84.88 C 125.11 84.98 124.07 85.07 123.03 85.15 C 120.63 92.61 119.05 100.28 119.25 108.16 C 117.51 111.83 114.35 115.03 110.36 116.15 C 112.19 117.01 114.47 117.56 115.44 119.53 C 117.71 122.86 112.42 125.47 113.37 128.99 C 114.62 136.69 117.88 143.94 118.81 151.74 C 117.93 151.03 117.06 150.33 116.18 149.63 C 112.19 150.14 108.19 150.54 104.17 150.72 C 104.70 143.62 107.56 136.97 107.89 129.85 C 108.74 126.48 105.04 124.70 103.71 122.08 C 103.37 119.16 106.31 117.61 108.30 116.15 C 100.76 114.23 95.32 107.82 91.43 101.43 C 91.49 101.25 91.63 100.89 91.70 100.72 C 93.52 95.64 93.27 89.79 91.79 84.64 C 90.17 84.21 88.25 84.21 87.01 82.91 C 85.77 79.92 86.22 76.58 86.35 73.43 C 86.77 73.06 87.63 72.30 88.05 71.93 C 87.83 69.74 87.63 67.55 87.40 65.36 C 92.94 63.62 97.70 60.18 103.09 58.09 C 107.57 56.23 112.54 54.33 114.91 49.76 C 115.74 49.41 116.58 49.06 117.42 48.72 Z" />
</g>
<g id="#e1e1e1ff">
<path fill="#e1e1e1" opacity="1.00" d=" M 82.31 26.41 C 92.36 23.25 103.14 22.54 113.57 23.86 C 111.39 24.52 109.21 25.17 107.00 25.70 C 116.72 24.86 125.09 30.83 132.01 36.91 C 140.10 42.22 148.65 48.68 151.38 58.45 C 152.35 62.64 153.93 66.74 154.21 71.05 C 152.55 77.63 149.66 83.87 147.02 90.11 C 142.97 94.67 138.96 100.11 132.78 101.82 C 131.10 102.39 129.35 102.66 127.61 102.96 C 127.62 103.79 127.64 104.62 127.65 105.45 C 126.93 105.37 126.21 105.30 125.49 105.22 C 125.81 106.45 126.12 107.68 126.42 108.92 C 125.05 107.87 123.78 106.70 122.70 105.35 L 122.37 105.78 L 122.07 104.95 C 121.78 104.20 121.20 102.70 120.91 101.95 C 120.20 103.98 119.85 106.10 119.25 108.16 C 119.05 100.28 120.63 92.61 123.03 85.15 C 124.07 85.07 125.11 84.98 126.15 84.88 C 126.80 84.81 128.09 84.66 128.74 84.58 C 131.26 80.10 133.95 75.32 133.53 69.98 C 134.24 64.23 130.13 59.75 128.24 54.68 C 128.04 55.37 127.65 56.75 127.45 57.44 C 124.95 52.62 121.47 47.90 116.68 45.15 C 115.81 44.73 114.92 44.35 114.01 44.04 C 110.79 42.90 107.32 42.94 103.96 43.18 C 103.41 42.45 102.86 41.71 102.31 40.98 C 104.75 41.35 107.21 41.67 109.67 41.94 C 110.06 41.12 110.45 40.31 110.84 39.49 C 111.95 39.49 113.06 39.48 114.17 39.48 C 113.65 38.19 113.64 36.44 112.27 35.69 C 109.71 34.98 107.00 35.14 104.40 34.62 C 103.49 33.38 103.48 31.76 103.10 30.32 C 99.45 29.36 95.82 28.04 92.00 28.01 C 88.71 27.87 85.08 28.69 82.31 26.41 Z" />
</g>
<g id="#cececeff">
<path fill="#cecece" opacity="1.00" d=" M 113.57 23.86 C 139.72 26.54 163.50 44.21 174.55 67.98 L 174.47 68.06 C 171.40 70.46 171.61 74.51 170.83 77.95 C 170.33 80.76 168.91 83.28 167.69 85.83 C 168.02 87.58 168.09 89.47 167.18 91.08 C 164.38 96.83 159.39 101.15 156.64 106.94 C 156.29 106.22 155.58 104.78 155.23 104.06 C 155.36 106.25 155.51 108.44 155.65 110.64 C 154.49 110.57 153.34 110.51 152.19 110.45 C 149.87 112.80 146.54 113.44 143.48 114.25 C 137.84 112.34 131.96 111.12 126.42 108.92 C 126.12 107.68 125.81 106.45 125.49 105.22 C 126.21 105.30 126.93 105.37 127.65 105.45 C 127.64 104.62 127.62 103.79 127.61 102.96 C 129.35 102.66 131.10 102.39 132.78 101.82 C 138.96 100.11 142.97 94.67 147.02 90.11 C 149.66 83.87 152.55 77.63 154.21 71.05 C 153.93 66.74 152.35 62.64 151.38 58.45 C 148.65 48.68 140.10 42.22 132.01 36.91 C 125.09 30.83 116.72 24.86 107.00 25.70 C 109.21 25.17 111.39 24.52 113.57 23.86 Z" />
</g>
<g id="#eaeaeaff">
<path fill="#eaeaea" opacity="1.00" d=" M 45.50 50.06 C 55.25 38.98 68.06 30.43 82.31 26.41 C 85.08 28.69 88.71 27.87 92.00 28.01 C 95.82 28.04 99.45 29.36 103.10 30.32 C 103.48 31.76 103.49 33.38 104.40 34.62 C 107.00 35.14 109.71 34.98 112.27 35.69 C 113.64 36.44 113.65 38.19 114.17 39.48 C 113.06 39.48 111.95 39.49 110.84 39.49 C 110.45 40.31 110.06 41.12 109.67 41.94 C 107.21 41.67 104.75 41.35 102.31 40.98 C 102.86 41.71 103.41 42.45 103.96 43.18 C 100.23 43.82 96.75 45.50 93.74 47.76 C 90.60 49.98 89.64 53.93 87.93 57.16 C 87.66 57.77 87.13 58.98 86.87 59.59 C 84.76 57.25 83.82 54.26 83.58 51.17 C 83.03 51.18 81.93 51.19 81.38 51.20 C 78.68 54.46 74.33 55.03 70.62 56.52 C 62.52 59.32 54.70 63.51 45.97 63.83 C 44.24 64.24 44.16 61.83 43.40 60.88 C 44.51 57.46 45.63 53.96 45.50 50.31 L 45.50 50.06 Z" />
</g>
<g id="#3e3e3eff">
<path fill="#3e3e3e" opacity="1.00" d=" M 93.74 47.76 C 96.75 45.50 100.23 43.82 103.96 43.18 C 107.32 42.94 110.79 42.90 114.01 44.04 C 112.57 43.98 111.14 43.98 109.71 43.97 C 109.54 44.73 109.38 45.50 109.22 46.27 C 102.79 51.11 95.19 53.87 87.93 57.16 C 89.64 53.93 90.60 49.98 93.74 47.76 Z" />
</g>
<g id="#1d1d1dff">
<path fill="#1d1d1d" opacity="1.00" d=" M 109.71 43.97 C 111.14 43.98 112.57 43.98 114.01 44.04 C 114.92 44.35 115.81 44.73 116.68 45.15 C 116.93 46.34 117.16 47.53 117.42 48.72 C 116.58 49.06 115.74 49.41 114.91 49.76 C 112.54 54.33 107.57 56.23 103.09 58.09 C 97.70 60.18 92.94 63.62 87.40 65.36 C 87.19 63.44 86.92 61.52 86.87 59.59 C 87.13 58.98 87.66 57.77 87.93 57.16 C 95.19 53.87 102.79 51.11 109.22 46.27 C 109.38 45.50 109.54 44.73 109.71 43.97 Z" />
</g>
<g id="#d2d2d2ff">
<path fill="#d2d2d2" opacity="1.00" d=" M 38.15 59.93 C 40.32 56.52 42.60 53.15 45.50 50.31 C 45.63 53.96 44.51 57.46 43.40 60.88 C 42.76 64.29 41.99 68.20 43.69 71.38 C 45.97 72.98 49.07 72.32 51.62 71.81 C 56.95 70.23 61.86 67.41 67.39 66.46 C 68.00 67.40 68.62 68.33 69.24 69.27 C 71.06 68.47 72.85 67.48 74.83 67.16 C 77.60 69.32 80.64 70.97 83.98 72.06 C 85.00 76.53 83.77 81.32 85.39 85.72 C 86.10 86.59 87.19 85.89 88.08 85.85 C 88.47 87.62 88.85 89.39 89.23 91.15 C 89.69 89.79 90.15 88.43 90.61 87.06 C 90.54 91.64 90.95 96.20 91.70 100.72 C 91.63 100.89 91.49 101.25 91.43 101.43 L 91.28 101.77 C 88.92 104.58 86.54 107.83 82.80 108.77 C 81.37 104.99 79.16 101.58 76.37 98.65 C 73.36 95.53 71.69 91.48 70.41 87.40 C 67.65 86.37 64.97 84.98 62.04 84.46 C 57.92 84.41 53.65 85.89 49.65 84.30 C 46.63 82.86 44.73 79.90 41.95 78.10 C 39.92 77.07 37.63 76.77 35.45 76.21 C 35.92 70.60 37.48 65.15 39.93 60.09 C 39.48 60.05 38.60 59.97 38.15 59.93 Z" />
</g>
<g id="#e0e0e0ff">
<path fill="#e0e0e0" opacity="1.00" d=" M 70.62 56.52 C 74.33 55.03 78.68 54.46 81.38 51.20 C 81.93 51.19 83.03 51.18 83.58 51.17 C 83.82 54.26 84.76 57.25 86.87 59.59 C 86.92 61.52 87.19 63.44 87.40 65.36 C 87.63 67.55 87.83 69.74 88.05 71.93 C 87.63 72.30 86.77 73.06 86.35 73.43 C 86.22 76.58 85.77 79.92 87.01 82.91 C 88.25 84.21 90.17 84.21 91.79 84.64 C 93.27 89.79 93.52 95.64 91.70 100.72 C 90.95 96.20 90.54 91.64 90.61 87.06 C 90.15 88.43 89.69 89.79 89.23 91.15 C 88.85 89.39 88.47 87.62 88.08 85.85 C 87.19 85.89 86.10 86.59 85.39 85.72 C 83.77 81.32 85.00 76.53 83.98 72.06 C 80.64 70.97 77.60 69.32 74.83 67.16 C 72.85 67.48 71.06 68.47 69.24 69.27 C 68.62 68.33 68.00 67.40 67.39 66.46 C 61.86 67.41 56.95 70.23 51.62 71.81 C 49.07 72.32 45.97 72.98 43.69 71.38 C 41.99 68.20 42.76 64.29 43.40 60.88 C 44.16 61.83 44.24 64.24 45.97 63.83 C 54.70 63.51 62.52 59.32 70.62 56.52 Z" />
</g>
<g id="#f0f0f0ff">
<path fill="#f0f0f0" opacity="1.00" d=" M 128.24 54.68 C 130.13 59.75 134.24 64.23 133.53 69.98 C 133.95 75.32 131.26 80.10 128.74 84.58 C 128.09 84.66 126.80 84.81 126.15 84.88 C 128.39 82.08 129.08 78.53 128.85 75.02 C 128.44 74.58 127.63 73.71 127.22 73.28 C 128.19 68.05 128.71 62.67 127.45 57.44 C 127.65 56.75 128.04 55.37 128.24 54.68 Z" />
</g>
<g id="#c0c0c0ff">
<path fill="#c0c0c0" opacity="1.00" d=" M 38.15 59.93 C 38.60 59.97 39.48 60.05 39.93 60.09 C 37.48 65.15 35.92 70.60 35.45 76.21 C 37.63 76.77 39.92 77.07 41.95 78.10 C 44.73 79.90 46.63 82.86 49.65 84.30 C 53.65 85.89 57.92 84.41 62.04 84.46 C 64.97 84.98 67.65 86.37 70.41 87.40 C 71.69 91.48 73.36 95.53 76.37 98.65 C 79.16 101.58 81.37 104.99 82.80 108.77 L 82.86 108.91 C 77.16 110.31 71.47 111.77 65.69 112.83 C 63.06 109.98 61.95 106.29 61.71 102.49 C 58.32 101.52 54.72 100.46 52.41 97.59 C 47.96 92.30 41.20 90.11 34.87 87.99 C 33.96 83.75 33.62 79.42 33.60 75.09 C 32.46 75.65 31.31 76.21 30.18 76.80 C 32.18 70.91 34.69 65.13 38.15 59.93 Z" />
</g>
<g id="#bababaff">
<path fill="#bababa" opacity="1.00" d=" M 170.83 77.95 C 171.61 74.51 171.40 70.46 174.47 68.06 C 180.38 79.91 182.56 93.45 181.53 106.59 C 180.87 104.76 180.13 102.96 179.40 101.16 C 177.15 104.42 175.09 107.80 173.12 111.23 C 170.91 115.21 166.91 117.61 163.75 120.73 C 161.37 122.95 159.54 125.67 157.84 128.43 C 156.83 125.44 156.25 122.21 154.47 119.56 C 151.23 117.02 147.15 115.99 143.48 114.25 C 146.54 113.44 149.87 112.80 152.19 110.45 C 153.34 110.51 154.49 110.57 155.65 110.64 C 155.51 108.44 155.36 106.25 155.23 104.06 C 155.58 104.78 156.29 106.22 156.64 106.94 C 159.39 101.15 164.38 96.83 167.18 91.08 C 168.09 89.47 168.02 87.58 167.69 85.83 C 168.91 83.28 170.33 80.76 170.83 77.95 Z" />
</g>
<g id="#9b9b9bff">
<path fill="#9b9b9b" opacity="1.00" d=" M 30.18 76.80 C 31.31 76.21 32.46 75.65 33.60 75.09 C 33.62 79.42 33.96 83.75 34.87 87.99 C 35.53 90.81 36.04 93.83 37.86 96.17 C 41.27 99.73 46.63 100.37 50.09 103.88 C 52.81 106.52 55.96 108.90 57.76 112.31 C 58.36 113.33 57.99 114.52 57.75 115.58 C 56.03 116.48 54.24 117.24 52.51 118.12 C 51.38 116.09 50.27 114.00 48.70 112.27 C 46.51 109.68 43.05 108.71 40.71 106.30 C 38.40 103.93 36.70 101.01 34.20 98.81 C 32.34 97.22 29.85 96.53 28.04 94.87 C 27.55 92.90 27.47 90.85 27.38 88.83 C 27.93 84.76 28.67 80.64 30.18 76.80 Z" />
</g>
<g id="#adadadff">
<path fill="#adadad" opacity="1.00" d=" M 34.87 87.99 C 41.20 90.11 47.96 92.30 52.41 97.59 C 54.72 100.46 58.32 101.52 61.71 102.49 C 61.95 106.29 63.06 109.98 65.69 112.83 L 65.79 112.98 C 63.09 113.76 60.42 114.68 57.75 115.58 C 57.99 114.52 58.36 113.33 57.76 112.31 C 55.96 108.90 52.81 106.52 50.09 103.88 C 46.63 100.37 41.27 99.73 37.86 96.17 C 36.04 93.83 35.53 90.81 34.87 87.99 Z" />
</g>
<g id="#838081ff">
<path fill="#838081" opacity="1.00" d=" M 26.56 101.38 C 26.49 97.18 26.68 92.98 27.38 88.83 C 27.47 90.85 27.55 92.90 28.04 94.87 C 29.85 96.53 32.34 97.22 34.20 98.81 C 36.70 101.01 38.40 103.93 40.71 106.30 C 43.05 108.71 46.51 109.68 48.70 112.27 C 50.27 114.00 51.38 116.09 52.51 118.12 C 51.34 122.22 50.08 126.30 49.03 130.43 C 45.19 130.71 44.63 125.80 42.51 123.52 C 39.64 119.17 35.16 116.24 32.05 112.10 C 29.75 108.77 29.12 104.57 26.56 101.38 Z" />
</g>
<g id="#a0a0a0ff">
<path fill="#a0a0a0" opacity="1.00" d=" M 173.12 111.23 C 175.09 107.80 177.15 104.42 179.40 101.16 C 180.13 102.96 180.87 104.76 181.53 106.59 C 181.62 111.47 180.27 116.24 179.28 120.99 C 178.63 120.42 177.98 119.86 177.34 119.30 C 172.71 126.24 166.13 131.85 158.97 136.07 C 158.73 133.50 158.44 130.94 157.84 128.43 C 159.54 125.67 161.37 122.95 163.75 120.73 C 166.91 117.61 170.91 115.21 173.12 111.23 Z" />
</g>
<g id="#5f5c5dff">
<path fill="#5f5c5d" opacity="1.00" d=" M 26.56 101.38 C 29.12 104.57 29.75 108.77 32.05 112.10 C 35.16 116.24 39.64 119.17 42.51 123.52 C 44.63 125.80 45.19 130.71 49.03 130.43 C 48.35 134.88 46.71 139.10 45.80 143.50 C 42.84 139.08 39.09 135.26 35.68 131.21 C 34.92 130.10 33.44 130.72 32.36 130.52 C 28.62 121.31 26.12 111.37 26.56 101.38 Z" />
</g>
<g id="#8c8b8bff">
<path fill="#8c8b8b" opacity="1.00" d=" M 177.34 119.30 C 177.98 119.86 178.63 120.42 179.28 120.99 C 178.27 124.55 177.08 128.06 175.58 131.45 C 172.68 131.71 170.97 134.20 169.05 136.05 C 165.94 139.31 161.14 140.82 159.15 145.14 C 159.37 142.12 159.29 139.08 158.97 136.07 C 166.13 131.85 172.71 126.24 177.34 119.30 Z" />
</g>
<g id="#494949ff">
<path fill="#494949" opacity="1.00" d=" M 32.36 130.52 C 33.44 130.72 34.92 130.10 35.68 131.21 C 39.09 135.26 42.84 139.08 45.80 143.50 C 46.32 146.33 46.65 149.28 45.94 152.12 C 40.17 145.84 35.31 138.54 32.36 130.52 Z" />
</g>
<g id="#787778ff">
<path fill="#787778" opacity="1.00" d=" M 169.05 136.05 C 170.97 134.20 172.68 131.71 175.58 131.45 C 171.75 140.86 165.69 149.35 158.39 156.38 C 158.31 152.63 158.28 148.82 159.15 145.14 C 161.14 140.82 165.94 139.31 169.05 136.05 Z" />
</g>
<g id="#0c0c0cff">
<path fill="#0c0c0c" opacity="1.00" d=" M 65.79 145.86 C 73.50 143.27 82.37 144.13 89.52 147.99 L 88.46 149.25 C 82.77 151.22 75.99 148.00 70.97 151.94 C 69.38 152.06 68.08 150.87 66.68 150.31 C 66.35 150.72 65.69 151.56 65.36 151.98 C 64.99 150.01 64.28 147.47 65.79 145.86 Z" />
</g>
<g id="#181818ff">
<path fill="#181818" opacity="1.00" d=" M 70.97 151.94 C 75.99 148.00 82.77 151.22 88.46 149.25 C 89.14 150.35 89.92 151.37 90.79 152.32 C 90.59 152.80 90.17 153.77 89.96 154.26 C 84.76 152.20 79.05 153.09 73.64 153.62 C 73.24 155.27 72.83 156.93 72.43 158.59 C 71.42 159.02 70.42 159.45 69.42 159.89 L 68.94 160.10 C 67.46 157.52 66.35 154.77 65.36 151.98 C 65.69 151.56 66.35 150.72 66.68 150.31 C 68.08 150.87 69.38 152.06 70.97 151.94 Z" />
</g>
<g id="#171717ff">
<path fill="#171717" opacity="1.00" d=" M 116.18 149.63 C 117.06 150.33 117.93 151.03 118.81 151.74 C 119.32 154.78 119.50 157.85 119.72 160.92 C 119.38 160.76 118.69 160.44 118.34 160.28 C 118.23 158.66 118.16 157.04 118.10 155.42 C 113.37 158.15 107.33 153.52 103.26 157.97 C 103.59 155.55 103.85 153.13 104.17 150.72 C 108.19 150.54 112.19 150.14 116.18 149.63 Z" />
</g>
<g id="#161616ff">
<path fill="#161616" opacity="1.00" d=" M 129.87 149.93 C 135.00 147.00 140.62 149.87 146.06 149.64 C 147.55 149.45 148.95 150.46 149.14 151.97 C 148.78 154.82 147.44 157.41 146.06 159.89 L 145.55 159.66 C 143.87 158.92 142.20 158.18 140.52 157.44 C 140.20 156.00 139.88 154.56 139.56 153.13 C 136.28 152.58 132.98 152.98 130.14 154.79 C 130.07 153.17 129.96 151.55 129.87 149.93 Z" />
</g>
<g id="#282828ff">
<path fill="#282828" opacity="1.00" d=" M 90.79 152.32 C 91.14 155.29 91.40 158.26 91.68 161.24 C 90.88 159.96 90.04 158.71 89.20 157.45 C 84.16 157.26 79.11 157.25 74.07 157.37 C 74.84 161.66 77.25 165.51 80.78 168.08 C 81.41 168.59 82.68 169.62 83.31 170.13 C 77.58 168.69 72.94 164.47 69.42 159.89 C 70.42 159.45 71.42 159.02 72.43 158.59 C 72.83 156.93 73.24 155.27 73.64 153.62 C 79.05 153.09 84.76 152.20 89.96 154.26 C 90.17 153.77 90.59 152.80 90.79 152.32 Z" />
</g>
<g id="#2b2b2bff">
<path fill="#2b2b2b" opacity="1.00" d=" M 130.14 154.79 C 132.98 152.98 136.28 152.58 139.56 153.13 C 139.88 154.56 140.20 156.00 140.52 157.44 C 142.20 158.18 143.87 158.92 145.55 159.66 C 142.11 165.02 136.48 168.64 130.69 171.03 C 130.68 170.61 130.67 169.77 130.67 169.35 C 133.68 167.21 136.15 164.42 137.25 160.84 C 135.79 160.68 134.34 160.53 132.88 160.38 C 132.09 162.01 131.29 163.63 130.57 165.29 C 130.45 161.79 130.28 158.29 130.14 154.79 Z" />
</g>
<g id="#373737ff">
<path fill="#373737" opacity="1.00" d=" M 103.26 157.97 C 107.33 153.52 113.37 158.15 118.10 155.42 C 118.16 157.04 118.23 158.66 118.34 160.28 C 113.32 160.63 107.49 162.66 103.07 159.29 L 103.26 157.97 Z" />
</g>
<g id="#404040ff">
<path fill="#404040" opacity="1.00" d=" M 74.07 157.37 C 79.11 157.25 84.16 157.26 89.20 157.45 C 90.04 158.71 90.88 159.96 91.68 161.24 C 91.82 162.41 91.94 163.59 92.05 164.77 C 91.97 166.84 91.81 168.90 91.66 170.96 C 91.40 169.63 91.14 168.29 90.88 166.96 C 87.50 167.22 83.89 166.31 80.78 168.08 C 77.25 165.51 74.84 161.66 74.07 157.37 Z" />
</g>
<g id="#464646ff">
<path fill="#464646" opacity="1.00" d=" M 102.17 168.32 C 102.53 165.31 102.74 162.29 103.07 159.29 C 107.49 162.66 113.32 160.63 118.34 160.28 C 118.69 160.44 119.38 160.76 119.72 160.92 L 119.77 161.82 C 119.54 162.61 119.08 164.20 118.84 164.99 C 114.86 165.10 110.88 164.80 106.90 164.92 C 104.68 164.74 103.56 167.02 102.17 168.32 Z" />
</g>
<g id="#484848ff">
<path fill="#484848" opacity="1.00" d=" M 130.57 165.29 C 131.29 163.63 132.09 162.01 132.88 160.38 C 134.34 160.53 135.79 160.68 137.25 160.84 C 136.15 164.42 133.68 167.21 130.67 169.35 C 130.62 167.99 130.59 166.64 130.57 165.29 Z" />
</g>
<g id="#545454ff">
<path fill="#545454" opacity="1.00" d=" M 119.77 161.82 C 120.15 166.03 120.34 170.25 120.50 174.48 L 119.55 174.09 C 119.20 172.49 118.93 170.87 118.67 169.26 C 113.13 169.12 107.59 169.39 102.05 169.25 L 102.17 168.32 C 103.56 167.02 104.68 164.74 106.90 164.92 C 110.88 164.80 114.86 165.10 118.84 164.99 C 119.08 164.20 119.54 162.61 119.77 161.82 Z" />
</g>
<g id="#5c5c5cff">
<path fill="#5c5c5c" opacity="1.00" d=" M 92.05 164.77 C 92.37 167.82 92.62 170.87 92.90 173.92 C 89.61 172.92 86.21 172.03 83.31 170.13 C 82.68 169.62 81.41 168.59 80.78 168.08 C 83.89 166.31 87.50 167.22 90.88 166.96 C 91.14 168.29 91.40 169.63 91.66 170.96 C 91.81 168.90 91.97 166.84 92.05 164.77 Z" />
</g>
<g id="#656565ff">
<path fill="#656565" opacity="1.00" d=" M 101.44 175.43 C 101.61 173.36 101.81 171.30 102.05 169.25 C 107.59 169.39 113.13 169.12 118.67 169.26 C 118.93 170.87 119.20 172.49 119.55 174.09 C 113.72 175.91 107.48 175.93 101.44 175.43 Z" />
</g>
</svg>
