<?xml version="1.0" encoding="UTF-8" ?>
<!DOCTYPE svg PUBLIC "-//W3C//DTD SVG 1.1//EN" "http://www.w3.org/Graphics/SVG/1.1/DTD/svg11.dtd">
<svg width="512pt" height="512pt" viewBox="0 0 512 512" version="1.1" xmlns="http://www.w3.org/2000/svg">
<g id="#000000ff">
<path fill="#000000" opacity="1.00" d=" M 147.03 51.07 C 185.22 35.59 226.83 29.42 267.91 30.80 C 308.35 31.88 349.00 39.38 386.07 55.94 C 412.47 67.69 436.91 84.15 456.95 105.05 C 474.46 123.21 488.54 144.70 497.95 168.12 C 506.85 190.06 511.43 213.65 512.00 237.30 L 512.00 243.72 C 511.33 284.88 497.33 325.69 472.33 358.42 C 449.33 389.02 417.51 412.38 382.45 427.39 C 344.23 443.85 302.44 450.86 260.98 451.31 C 230.62 451.60 200.22 447.96 170.81 440.40 C 147.09 464.80 114.04 480.03 79.96 481.25 C 66.07 481.56 52.18 481.34 38.30 481.39 C 47.28 472.32 56.38 463.37 65.33 454.28 C 78.29 440.84 86.28 423.06 88.81 404.64 C 72.54 393.54 57.15 380.96 44.24 366.01 C 23.14 342.01 8.27 312.39 2.72 280.86 C 1.21 272.84 0.57 264.70 0.00 256.57 L 0.00 246.35 C 0.64 225.67 4.51 205.08 11.66 185.66 C 24.40 150.57 46.82 119.30 74.94 94.88 C 96.22 76.29 120.80 61.55 147.03 51.07 Z" />
</g>
</svg>
