<?xml version="1.0" encoding="UTF-8" ?>
<!DOCTYPE svg PUBLIC "-//W3C//DTD SVG 1.1//EN" "http://www.w3.org/Graphics/SVG/1.1/DTD/svg11.dtd">
<svg width="512pt" height="512pt" viewBox="0 0 512 512" version="1.1" xmlns="http://www.w3.org/2000/svg">
<g id="#000000ff">
<path fill="#000000" opacity="1.00" d=" M 250.41 0.00 L 254.47 0.00 C 279.27 0.44 304.07 8.03 324.02 22.94 C 345.56 38.74 362.66 61.10 370.38 86.82 C 377.17 109.86 377.34 134.84 370.91 157.97 C 364.73 179.91 351.71 199.62 334.85 214.84 C 318.73 229.72 298.52 240.19 276.93 244.28 C 252.85 248.69 227.37 246.78 204.68 237.33 C 181.89 227.69 162.43 210.81 148.69 190.32 C 136.64 172.24 130.03 150.73 129.25 129.06 C 128.08 104.42 133.99 79.23 147.37 58.39 C 158.24 41.37 173.08 26.83 190.45 16.50 C 208.45 5.61 229.48 0.46 250.41 0.00 Z" />
<path fill="#000000" opacity="1.00" d=" M 100.68 262.81 C 116.67 252.30 135.91 247.17 154.99 247.41 C 158.73 247.48 162.29 248.82 165.59 250.50 C 179.27 257.82 191.36 267.88 205.40 274.55 C 215.30 278.65 225.35 282.64 235.94 284.58 C 256.37 288.67 277.86 285.98 297.05 278.03 C 315.21 272.09 329.53 258.83 346.28 250.14 C 349.31 248.63 352.60 247.52 356.02 247.41 C 379.32 247.04 403.00 254.86 420.50 270.46 C 437.74 285.98 448.55 307.24 455.99 328.89 C 465.84 360.56 469.53 393.92 469.06 427.01 C 468.76 439.93 466.28 452.94 460.78 464.69 C 454.05 479.32 442.53 491.59 428.63 499.66 C 414.68 507.88 398.47 511.36 382.42 512.00 L 129.52 512.00 C 117.39 511.53 105.19 509.70 93.88 505.15 C 76.61 498.39 61.63 485.65 52.73 469.32 C 45.59 456.46 42.47 441.69 42.11 427.06 C 41.66 397.52 44.56 367.81 52.19 339.23 C 56.21 323.59 62.56 308.60 70.78 294.72 C 78.45 282.23 88.30 270.81 100.68 262.81 Z" />
</g>
</svg>
